<svg width="230" height="40" viewBox="0 0 230 40" fill="none" xmlns="http://www.w3.org/2000/svg">
<path d="M28.1389 24.5694L36.375 16.3333L37.3612 17.3194C37.6389 17.5971 37.7778 17.9212 37.7778 18.2916C37.7778 18.662 37.6389 18.986 37.3612 19.2638L31.0695 25.5555C30.7917 25.8333 30.4653 25.9699 30.0903 25.9652C29.7153 25.9606 29.3889 25.8194 29.1111 25.5416L28.1389 24.5694ZM1.38892 28.3888C1.38892 27.7592 1.56715 27.1851 1.92362 26.6666C2.28012 26.1481 2.75929 25.7731 3.36112 25.5416C4.03707 25.2823 4.68522 24.9768 5.30558 24.6249C5.92597 24.2731 6.52783 23.8657 7.11117 23.4027L9.22225 25.5138C9.32411 25.6712 9.47921 25.7476 9.68754 25.743C9.89587 25.7383 10.0741 25.662 10.2222 25.5138C10.3426 25.3934 10.3982 25.2337 10.3889 25.0346C10.3797 24.8356 10.3241 24.6573 10.2222 24.4999L8.26392 22.5138C8.52319 22.2916 8.77089 22.0578 9.007 21.8124C9.24311 21.567 9.48153 21.3008 9.72225 21.0138L11.6667 22.9721C11.7686 23.1295 11.9237 23.2082 12.132 23.2082C12.3403 23.2082 12.5232 23.1295 12.6806 22.9721C12.8009 22.8518 12.8565 22.692 12.8472 22.493C12.838 22.2939 12.7824 22.1156 12.6806 21.9582L10.6667 19.9583C10.8612 19.662 11.0579 19.3634 11.257 19.0624C11.4561 18.7615 11.6204 18.4258 11.75 18.0555L14.0972 20.4582C14.1991 20.6342 14.3542 20.7175 14.5625 20.7082C14.7709 20.699 14.9537 20.6156 15.1111 20.4582C15.2315 20.3379 15.2917 20.1805 15.2917 19.986C15.2917 19.7916 15.2408 19.6156 15.1389 19.4582L12.3472 16.6944L14.4445 12.486C14.5093 12.3379 14.588 12.199 14.6806 12.0694C14.7732 11.9398 14.8751 11.8194 14.9862 11.7083L21.4306 5.27769C21.9584 4.74994 22.6089 4.48837 23.382 4.49298C24.1551 4.49762 24.8056 4.76383 25.3334 5.2916L35.1945 15.1527L18.4445 32.2083C18.1945 32.4675 17.8936 32.6735 17.5417 32.8263C17.1898 32.9791 16.8241 33.0555 16.4445 33.0555H4.16667C3.39817 33.0555 2.74308 32.7846 2.20142 32.243C1.65975 31.7013 1.38892 31.0462 1.38892 30.2777V28.3888ZM4.22225 30.2777H16.4306L31.3056 15.1805L23.375 7.2499L16.9306 13.7083L15.5834 16.5832L16.6667 17.6944C17.2871 18.361 17.6158 19.1365 17.6528 20.0207C17.6899 20.905 17.3982 21.6573 16.7778 22.2777L11.8195 27.236C11.1898 27.8657 10.4398 28.1805 9.56946 28.1805C8.6991 28.1805 7.963 27.8657 7.36117 27.236L6.97225 26.8471C6.51856 27.1249 6.06485 27.3657 5.61112 27.5694C5.15743 27.773 4.69447 27.9721 4.22225 28.1666V30.2777Z" fill="black"/>
<path d="M54.5371 28L53.502 24.6016H48.2969L47.2617 28H44L49.0391 13.6641H52.7402L57.7988 28H54.5371ZM52.7793 22.0625L51.7441 18.7422C51.679 18.5208 51.5911 18.2376 51.4805 17.8926C51.3763 17.541 51.2689 17.1862 51.1582 16.8281C51.054 16.4635 50.9694 16.1478 50.9043 15.8809C50.8392 16.1478 50.748 16.4798 50.6309 16.877C50.5202 17.2676 50.4128 17.6387 50.3086 17.9902C50.2044 18.3418 50.1296 18.5924 50.084 18.7422L49.0586 22.0625H52.7793ZM65.5723 16.877C66.7376 16.877 67.6751 17.196 68.3848 17.834C69.0944 18.4655 69.4492 19.4811 69.4492 20.8809V28H66.4707V21.623C66.4707 20.8418 66.3275 20.2526 66.041 19.8555C65.7611 19.4583 65.3184 19.2598 64.7129 19.2598C63.8014 19.2598 63.1797 19.569 62.8477 20.1875C62.5156 20.806 62.3496 21.6979 62.3496 22.8633V28H59.3711V17.082H61.6465L62.0469 18.4785H62.2129C62.4473 18.1009 62.737 17.7949 63.082 17.5605C63.4336 17.3262 63.821 17.1536 64.2441 17.043C64.6738 16.9323 65.1165 16.877 65.5723 16.877ZM77.1152 25.8223C77.4408 25.8223 77.7565 25.7897 78.0625 25.7246C78.375 25.6595 78.6842 25.5781 78.9902 25.4805V27.6973C78.6712 27.8405 78.2741 27.9577 77.7988 28.0488C77.3301 28.1465 76.8158 28.1953 76.2559 28.1953C75.6048 28.1953 75.0189 28.0911 74.498 27.8828C73.9837 27.668 73.5768 27.3001 73.2773 26.7793C72.9844 26.252 72.8379 25.5195 72.8379 24.582V19.3184H71.4121V18.0586L73.0527 17.0625L73.9121 14.7578H75.8164V17.082H78.873V19.3184H75.8164V24.582C75.8164 24.9987 75.9336 25.3112 76.168 25.5195C76.4089 25.7214 76.7246 25.8223 77.1152 25.8223ZM84.1855 17.082V28H81.207V17.082H84.1855ZM82.7012 12.8047C83.1439 12.8047 83.5247 12.9089 83.8438 13.1172C84.1628 13.319 84.3223 13.6999 84.3223 14.2598C84.3223 14.8132 84.1628 15.1973 83.8438 15.4121C83.5247 15.6204 83.1439 15.7246 82.7012 15.7246C82.252 15.7246 81.8678 15.6204 81.5488 15.4121C81.2363 15.1973 81.0801 14.8132 81.0801 14.2598C81.0801 13.6999 81.2363 13.319 81.5488 13.1172C81.8678 12.9089 82.252 12.8047 82.7012 12.8047ZM86.3535 23.8594V21.418H91.5977V23.8594H86.3535ZM101.383 24.7578C101.383 25.5 101.207 26.1283 100.855 26.6426C100.51 27.1504 99.9928 27.5378 99.3027 27.8047C98.6126 28.0651 97.7533 28.1953 96.7246 28.1953C95.9629 28.1953 95.3086 28.1465 94.7617 28.0488C94.2214 27.9512 93.6745 27.7884 93.1211 27.5605V25.0996C93.7135 25.3665 94.3483 25.5879 95.0254 25.7637C95.709 25.9329 96.3079 26.0176 96.8223 26.0176C97.4017 26.0176 97.8151 25.9329 98.0625 25.7637C98.3164 25.5879 98.4434 25.36 98.4434 25.0801C98.4434 24.8978 98.3913 24.735 98.2871 24.5918C98.1895 24.4421 97.9746 24.276 97.6426 24.0938C97.3105 23.9049 96.7897 23.6608 96.0801 23.3613C95.3965 23.0749 94.8333 22.7852 94.3906 22.4922C93.9544 22.1992 93.6289 21.8542 93.4141 21.457C93.2057 21.0534 93.1016 20.5423 93.1016 19.9238C93.1016 18.9147 93.4922 18.1562 94.2734 17.6484C95.0612 17.1341 96.1126 16.877 97.4277 16.877C98.1048 16.877 98.7493 16.9453 99.3613 17.082C99.9798 17.2188 100.615 17.4368 101.266 17.7363L100.367 19.8848C99.8268 19.6504 99.3158 19.4583 98.834 19.3086C98.3587 19.1589 97.8737 19.084 97.3789 19.084C96.9427 19.084 96.6139 19.1426 96.3926 19.2598C96.1712 19.377 96.0605 19.556 96.0605 19.7969C96.0605 19.9727 96.1159 20.1289 96.2266 20.2656C96.3438 20.4023 96.5651 20.5553 96.8906 20.7246C97.2227 20.8874 97.7077 21.099 98.3457 21.3594C98.9642 21.6133 99.5013 21.8802 99.957 22.1602C100.413 22.4336 100.764 22.7754 101.012 23.1855C101.259 23.5892 101.383 24.1133 101.383 24.7578ZM106.686 28H103.707V12.8047H106.686V28ZM112.799 17.082V28H109.82V17.082H112.799ZM111.314 12.8047C111.757 12.8047 112.138 12.9089 112.457 13.1172C112.776 13.319 112.936 13.6999 112.936 14.2598C112.936 14.8132 112.776 15.1973 112.457 15.4121C112.138 15.6204 111.757 15.7246 111.314 15.7246C110.865 15.7246 110.481 15.6204 110.162 15.4121C109.85 15.1973 109.693 14.8132 109.693 14.2598C109.693 13.6999 109.85 13.319 110.162 13.1172C110.481 12.9089 110.865 12.8047 111.314 12.8047ZM122.008 16.877C123.238 16.877 124.231 17.3555 124.986 18.3125C125.748 19.2695 126.129 20.6725 126.129 22.5215C126.129 23.7585 125.95 24.8001 125.592 25.6465C125.234 26.4863 124.739 27.1211 124.107 27.5508C123.476 27.9805 122.75 28.1953 121.93 28.1953C121.402 28.1953 120.95 28.1302 120.572 28C120.195 27.8633 119.872 27.6908 119.605 27.4824C119.339 27.2676 119.107 27.0397 118.912 26.7988H118.756C118.808 27.0592 118.847 27.3262 118.873 27.5996C118.899 27.873 118.912 28.14 118.912 28.4004V32.8047H115.934V17.082H118.355L118.775 18.498H118.912C119.107 18.2051 119.345 17.9349 119.625 17.6875C119.905 17.4401 120.24 17.2448 120.631 17.1016C121.028 16.9518 121.487 16.877 122.008 16.877ZM121.051 19.2598C120.53 19.2598 120.117 19.3672 119.811 19.582C119.505 19.7969 119.28 20.1191 119.137 20.5488C119 20.9785 118.925 21.5221 118.912 22.1797V22.502C118.912 23.2051 118.977 23.8008 119.107 24.2891C119.244 24.7773 119.469 25.1484 119.781 25.4023C120.1 25.6562 120.536 25.7832 121.09 25.7832C121.546 25.7832 121.92 25.6562 122.213 25.4023C122.506 25.1484 122.724 24.7773 122.867 24.2891C123.017 23.7943 123.092 23.1921 123.092 22.4824C123.092 21.4147 122.926 20.6107 122.594 20.0703C122.262 19.5299 121.747 19.2598 121.051 19.2598ZM138.58 13.7227C140.423 13.7227 141.767 14.1198 142.613 14.9141C143.46 15.7018 143.883 16.7891 143.883 18.1758C143.883 18.8008 143.788 19.3997 143.6 19.9727C143.411 20.5391 143.102 21.0436 142.672 21.4863C142.249 21.929 141.682 22.2806 140.973 22.541C140.263 22.7949 139.387 22.9219 138.346 22.9219H137.047V28H134.02V13.7227H138.58ZM138.424 16.2031H137.047V20.4414H138.043C138.609 20.4414 139.101 20.3665 139.518 20.2168C139.934 20.0671 140.257 19.8327 140.484 19.5137C140.712 19.1947 140.826 18.7845 140.826 18.2832C140.826 17.5801 140.631 17.0592 140.24 16.7207C139.85 16.3757 139.244 16.2031 138.424 16.2031ZM152.438 16.877C152.587 16.877 152.76 16.8867 152.955 16.9062C153.157 16.9193 153.32 16.9388 153.443 16.9648L153.219 19.7578C153.121 19.7253 152.981 19.7025 152.799 19.6895C152.623 19.6699 152.47 19.6602 152.34 19.6602C151.956 19.6602 151.581 19.709 151.217 19.8066C150.859 19.9043 150.536 20.0638 150.25 20.2852C149.964 20.5 149.736 20.7865 149.566 21.1445C149.404 21.4961 149.322 21.929 149.322 22.4434V28H146.344V17.082H148.6L149.039 18.918H149.186C149.4 18.5469 149.667 18.2083 149.986 17.9023C150.312 17.5898 150.68 17.3424 151.09 17.1602C151.507 16.9714 151.956 16.877 152.438 16.877ZM165.348 22.5215C165.348 23.4329 165.224 24.2402 164.977 24.9434C164.736 25.6465 164.381 26.2422 163.912 26.7305C163.45 27.2122 162.89 27.5768 162.232 27.8242C161.581 28.0716 160.846 28.1953 160.025 28.1953C159.257 28.1953 158.551 28.0716 157.906 27.8242C157.268 27.5768 156.712 27.2122 156.236 26.7305C155.768 26.2422 155.403 25.6465 155.143 24.9434C154.889 24.2402 154.762 23.4329 154.762 22.5215C154.762 21.3105 154.977 20.2852 155.406 19.4453C155.836 18.6055 156.448 17.9674 157.242 17.5312C158.036 17.0951 158.984 16.877 160.084 16.877C161.106 16.877 162.011 17.0951 162.799 17.5312C163.593 17.9674 164.215 18.6055 164.664 19.4453C165.12 20.2852 165.348 21.3105 165.348 22.5215ZM157.799 22.5215C157.799 23.2376 157.877 23.8398 158.033 24.3281C158.189 24.8164 158.434 25.1842 158.766 25.4316C159.098 25.679 159.531 25.8027 160.064 25.8027C160.592 25.8027 161.018 25.679 161.344 25.4316C161.676 25.1842 161.917 24.8164 162.066 24.3281C162.223 23.8398 162.301 23.2376 162.301 22.5215C162.301 21.7988 162.223 21.1999 162.066 20.7246C161.917 20.2428 161.676 19.8815 161.344 19.6406C161.012 19.3997 160.579 19.2793 160.045 19.2793C159.257 19.2793 158.684 19.5495 158.326 20.0898C157.975 20.6302 157.799 21.4408 157.799 22.5215ZM173.844 19.3184H171.266V28H168.287V19.3184H166.646V17.8828L168.287 17.082V16.2812C168.287 15.3503 168.443 14.6276 168.756 14.1133C169.075 13.5924 169.521 13.2279 170.094 13.0195C170.673 12.8047 171.357 12.6973 172.145 12.6973C172.724 12.6973 173.251 12.7461 173.727 12.8438C174.202 12.9349 174.589 13.0391 174.889 13.1562L174.127 15.3438C173.899 15.2721 173.652 15.207 173.385 15.1484C173.118 15.0898 172.812 15.0605 172.467 15.0605C172.05 15.0605 171.744 15.1875 171.549 15.4414C171.36 15.6888 171.266 16.0078 171.266 16.3984V17.082H173.844V19.3184ZM178.531 17.082V28H175.553V17.082H178.531ZM177.047 12.8047C177.49 12.8047 177.87 12.9089 178.189 13.1172C178.508 13.319 178.668 13.6999 178.668 14.2598C178.668 14.8132 178.508 15.1973 178.189 15.4121C177.87 15.6204 177.49 15.7246 177.047 15.7246C176.598 15.7246 176.214 15.6204 175.895 15.4121C175.582 15.1973 175.426 14.8132 175.426 14.2598C175.426 13.6999 175.582 13.319 175.895 13.1172C176.214 12.9089 176.598 12.8047 177.047 12.8047ZM184.635 28H181.656V12.8047H184.635V28ZM192.271 16.877C193.281 16.877 194.15 17.0723 194.879 17.4629C195.608 17.847 196.171 18.4069 196.568 19.1426C196.965 19.8783 197.164 20.7767 197.164 21.8379V23.2832H190.123C190.156 24.123 190.406 24.7839 190.875 25.2656C191.35 25.7409 192.008 25.9785 192.848 25.9785C193.544 25.9785 194.182 25.9069 194.762 25.7637C195.341 25.6204 195.937 25.4056 196.549 25.1191V27.4238C196.008 27.6908 195.442 27.8861 194.85 28.0098C194.264 28.1335 193.551 28.1953 192.711 28.1953C191.617 28.1953 190.647 27.9935 189.801 27.5898C188.961 27.1862 188.3 26.571 187.818 25.7441C187.343 24.9173 187.105 23.8757 187.105 22.6191C187.105 21.3431 187.32 20.2819 187.75 19.4355C188.186 18.5827 188.792 17.9447 189.566 17.5215C190.341 17.0918 191.243 16.877 192.271 16.877ZM192.291 18.9961C191.712 18.9961 191.23 19.1816 190.846 19.5527C190.468 19.9238 190.25 20.5065 190.191 21.3008H194.371C194.365 20.8581 194.283 20.4642 194.127 20.1191C193.977 19.7741 193.749 19.5007 193.443 19.2988C193.144 19.097 192.76 18.9961 192.291 18.9961ZM207.203 24.7578C207.203 25.5 207.027 26.1283 206.676 26.6426C206.331 27.1504 205.813 27.5378 205.123 27.8047C204.433 28.0651 203.574 28.1953 202.545 28.1953C201.783 28.1953 201.129 28.1465 200.582 28.0488C200.042 27.9512 199.495 27.7884 198.941 27.5605V25.0996C199.534 25.3665 200.169 25.5879 200.846 25.7637C201.529 25.9329 202.128 26.0176 202.643 26.0176C203.222 26.0176 203.635 25.9329 203.883 25.7637C204.137 25.5879 204.264 25.36 204.264 25.0801C204.264 24.8978 204.212 24.735 204.107 24.5918C204.01 24.4421 203.795 24.276 203.463 24.0938C203.131 23.9049 202.61 23.6608 201.9 23.3613C201.217 23.0749 200.654 22.7852 200.211 22.4922C199.775 22.1992 199.449 21.8542 199.234 21.457C199.026 21.0534 198.922 20.5423 198.922 19.9238C198.922 18.9147 199.312 18.1562 200.094 17.6484C200.882 17.1341 201.933 16.877 203.248 16.877C203.925 16.877 204.57 16.9453 205.182 17.082C205.8 17.2188 206.435 17.4368 207.086 17.7363L206.188 19.8848C205.647 19.6504 205.136 19.4583 204.654 19.3086C204.179 19.1589 203.694 19.084 203.199 19.084C202.763 19.084 202.434 19.1426 202.213 19.2598C201.992 19.377 201.881 19.556 201.881 19.7969C201.881 19.9727 201.936 20.1289 202.047 20.2656C202.164 20.4023 202.385 20.5553 202.711 20.7246C203.043 20.8874 203.528 21.099 204.166 21.3594C204.785 21.6133 205.322 21.8802 205.777 22.1602C206.233 22.4336 206.585 22.7754 206.832 23.1855C207.079 23.5892 207.203 24.1133 207.203 24.7578ZM218.639 25.2363V16.3984H221.305C222.392 16.3984 223.189 16.6296 223.697 17.0918C224.205 17.554 224.459 18.2181 224.459 19.084C224.459 19.7155 224.299 20.2135 223.98 20.5781C223.661 20.9362 223.3 21.1966 222.896 21.3594L225.221 25.2363H223.404L221.5 21.877H220.26V25.2363H218.639ZM220.26 20.5391H221.256C221.777 20.5391 222.167 20.4089 222.428 20.1484C222.688 19.8815 222.818 19.5397 222.818 19.123C222.818 18.6478 222.698 18.306 222.457 18.0977C222.223 17.8828 221.816 17.7754 221.236 17.7754H220.26V20.5391ZM221.48 28.1953C220.419 28.1953 219.439 28.0163 218.541 27.6582C217.649 27.2936 216.871 26.7826 216.207 26.125C215.549 25.4674 215.038 24.6927 214.674 23.8008C214.316 22.9023 214.137 21.9225 214.137 20.8613C214.137 19.8457 214.319 18.8952 214.684 18.0098C215.055 17.1178 215.572 16.3366 216.236 15.666C216.907 14.9954 217.688 14.4714 218.58 14.0938C219.472 13.7096 220.439 13.5176 221.48 13.5176C222.496 13.5176 223.447 13.6999 224.332 14.0645C225.224 14.4225 226.005 14.9336 226.676 15.5977C227.346 16.2552 227.87 17.0299 228.248 17.9219C228.632 18.8138 228.824 19.7936 228.824 20.8613C228.824 21.9225 228.642 22.9023 228.277 23.8008C227.919 24.6927 227.408 25.4674 226.744 26.125C226.087 26.7826 225.312 27.2936 224.42 27.6582C223.528 28.0163 222.548 28.1953 221.48 28.1953ZM221.48 26.916C222.301 26.916 223.069 26.7695 223.785 26.4766C224.501 26.1771 225.133 25.7572 225.68 25.2168C226.227 24.6764 226.653 24.0384 226.959 23.3027C227.265 22.5605 227.418 21.7467 227.418 20.8613C227.418 20.028 227.268 19.2435 226.969 18.5078C226.669 17.7721 226.249 17.1243 225.709 16.5645C225.175 16.0046 224.547 15.5684 223.824 15.2559C223.108 14.9368 222.327 14.7773 221.48 14.7773C220.628 14.7773 219.837 14.9271 219.107 15.2266C218.385 15.526 217.753 15.9492 217.213 16.4961C216.673 17.0365 216.253 17.6777 215.953 18.4199C215.654 19.1621 215.504 19.9759 215.504 20.8613C215.504 21.7467 215.65 22.5605 215.943 23.3027C216.236 24.0384 216.65 24.6764 217.184 25.2168C217.717 25.7572 218.349 26.1771 219.078 26.4766C219.807 26.7695 220.608 26.916 221.48 26.916Z" fill="#1B1B18"/>
</svg>
