<svg width="243" height="37" viewBox="0 0 243 37" fill="none" xmlns="http://www.w3.org/2000/svg">
<path d="M7.62098 12.0339C7.00626 12.1333 6.14093 12.3789 5.58316 13.0842C4.85367 14.0068 5.40709 14.7578 4.8528 16.2261C4.17961 18.0081 2.51414 19.1525 2.19113 19.3744C1.04322 20.163 0.142876 20.3017 0.0152806 21.0579C-0.0555813 21.4781 0.12201 22.0278 0.506534 22.2587C0.815414 22.4443 1.17798 22.3756 1.47686 22.2956C2.9004 21.9148 3.98507 20.9849 4.10288 20.8773C5.62837 19.4864 6.77281 17.862 6.77281 17.862C7.25558 18.5169 8.09658 19.8587 8.22178 21.6998C8.26091 22.2804 8.32786 22.8173 8.11397 23.4607C7.80727 24.3832 7.22972 24.7165 6.36155 25.7135C5.77792 26.3837 5.18581 27.0636 4.78911 27.992C4.33916 29.044 4.33351 30.203 4.32177 32.5211C4.31721 33.4649 4.36351 33.2397 4.35677 34.1594C4.34525 35.8255 4.19461 36.4106 4.57522 36.7295C4.87997 36.9851 5.44469 37.0019 5.83596 36.778C6.63739 36.3198 6.66608 34.8775 6.68717 32.5063C6.70064 30.9688 6.57892 30.4156 6.98258 29.5835C7.28928 28.9506 7.68641 28.5482 8.1731 28.0681C8.68565 27.5622 9.50991 26.8645 10.7165 26.2637C11.4456 27.7924 11.9481 28.9658 12.1435 29.4836C12.159 29.5244 12.2624 29.7994 12.3924 30.1648C12.4985 30.4617 12.5765 30.6815 12.6665 30.9664C12.7822 31.3323 12.7615 31.3127 12.8293 31.5153C13.1128 32.3635 13.2045 32.6076 13.4262 33.2734C13.4262 33.2734 14.2544 36.1339 15.08 36.7358C15.3321 36.9197 15.6138 36.9736 15.6138 36.9736C15.7186 36.9936 16.0085 37.0451 16.3039 36.9071C16.6685 36.7369 16.8122 36.3843 16.8567 36.2752C17.1406 35.5803 16.758 34.7928 16.665 34.5939C15.7329 32.6 14.5974 27.1488 13.5851 22.2904C13.3469 21.1471 13.1936 20.5393 12.8871 19.3242C12.6141 18.2411 12.4737 17.6911 12.2981 17.277C11.9864 16.5434 11.6668 16.0752 11.8105 15.9396C11.934 15.8231 12.3203 16.0289 12.913 16.3348C12.9743 16.3665 13.4823 16.6286 13.6797 16.7832C14.8165 17.674 13.1604 20.8817 14.3053 21.7944C14.6233 22.0481 15.0771 22.0607 15.371 21.9431C16.1183 21.6446 16.2224 20.3508 16.3435 18.8499C16.4576 17.4305 16.515 16.7206 16.2255 16.0657C15.8431 15.201 15.1121 14.7469 13.6501 13.8387C12.6646 13.2264 11.6979 12.6371 10.2566 12.2906C9.18907 12.0339 8.26591 12.0076 7.62098 12.0339Z" fill="#1B1B18"/>
<path d="M7.55967 9.32015C7.55967 10.5746 6.54283 11.5914 5.2884 11.5914C4.03397 11.5914 3.01712 10.5746 3.01712 9.32015C3.01712 8.06573 4.03397 7.04887 5.2884 7.04887C6.54283 7.04887 7.55967 8.06573 7.55967 9.32015Z" fill="#1B1B18"/>
<path d="M31.6176 6.07195C30.8561 6.1952 29.7843 6.49952 29.0933 7.37334C28.1897 8.51604 28.8753 9.44637 28.1884 11.2653C27.3545 13.4731 25.2915 14.8906 24.8913 15.1655C23.4693 16.1426 22.3538 16.3145 22.1955 17.2512C22.1077 17.7716 22.3281 18.4526 22.8042 18.7386C23.187 18.9686 23.636 18.8836 24.0064 18.7843C25.7699 18.3124 27.1137 17.1605 27.2596 17.0275C29.1494 15.3042 30.5668 13.2918 30.5668 13.2918C31.1652 14.1035 32.2068 15.7657 32.3618 18.0461C32.411 18.7654 32.4933 19.4305 32.2284 20.2278C31.8486 21.3703 31.1333 21.7833 30.0575 23.0184C29.3346 23.8487 28.6009 24.691 28.1095 25.8411C27.5524 27.1445 27.5454 28.5802 27.5308 31.4518C27.525 32.621 27.5826 32.3419 27.5743 33.4812C27.5595 35.5451 27.3732 36.2702 27.8447 36.6652C28.2223 36.9817 28.922 37.0025 29.4065 36.7254C30.3992 36.1574 30.4351 34.3711 30.461 31.4333C30.4777 29.5288 30.3271 28.8436 30.8266 27.8126C31.2067 27.0286 31.6989 26.53 32.3018 25.9352C32.9368 25.3086 33.958 24.4441 35.4526 23.7C36.3555 25.5938 36.9783 27.0475 37.2204 27.689C37.2393 27.7394 37.3674 28.08 37.5287 28.5326C37.66 28.9006 37.7567 29.1727 37.8682 29.5259C38.0114 29.9789 37.986 29.9548 38.0701 30.2056C38.4212 31.2566 38.5344 31.5588 38.8094 32.3839C38.8094 32.3839 39.8354 35.9272 40.8579 36.6732C41.1702 36.9008 41.5193 36.9677 41.5193 36.9677C41.6491 36.9923 42.0084 37.0562 42.3742 36.8854C42.8259 36.6741 43.0042 36.2378 43.0594 36.1024C43.4106 35.2414 42.9368 34.2659 42.8216 34.0194C41.6671 31.5494 40.2601 24.7964 39.0061 18.7778C38.7109 17.3614 38.5212 16.6086 38.1416 15.1034C37.8032 13.7616 37.6295 13.0803 37.4117 12.5673C37.0257 11.6583 36.6298 11.0784 36.8079 10.9106C36.9607 10.766 37.4393 11.0212 38.1736 11.4001C38.2497 11.4392 38.8787 11.764 39.1233 11.9555C40.5314 13.059 38.4801 17.0325 39.8984 18.1635C40.2921 18.4776 40.8544 18.4932 41.2187 18.3476C42.1442 17.9778 42.2734 16.3752 42.4231 14.5156C42.5649 12.7573 42.6359 11.8781 42.2771 11.0666C41.8034 9.99544 40.8979 9.4329 39.0868 8.3078C37.8658 7.5494 36.6683 6.81949 34.8829 6.39018C33.5604 6.07218 32.4166 6.03957 31.6176 6.07195Z" fill="#1B1B18"/>
<path d="M31.4826 2.81359C31.4826 4.36755 30.2229 5.6272 28.6692 5.6272C27.115 5.6272 25.8554 4.36755 25.8554 2.81359C25.8554 1.25963 27.115 -1.71384e-05 28.6692 -1.71384e-05C30.2229 -1.71384e-05 31.4826 1.25963 31.4826 2.81359Z" fill="#1B1B18"/>
<path d="M67.5371 27L66.502 23.6016H61.2969L60.2617 27H57L62.0391 12.6641H65.7402L70.7988 27H67.5371ZM65.7793 21.0625L64.7441 17.7422C64.679 17.5208 64.5911 17.2376 64.4805 16.8926C64.3763 16.541 64.2689 16.1862 64.1582 15.8281C64.054 15.4635 63.9694 15.1478 63.9043 14.8809C63.8392 15.1478 63.748 15.4798 63.6309 15.877C63.5202 16.2676 63.4128 16.6387 63.3086 16.9902C63.2044 17.3418 63.1296 17.5924 63.084 17.7422L62.0586 21.0625H65.7793ZM78.5723 15.877C79.7376 15.877 80.6751 16.196 81.3848 16.834C82.0944 17.4655 82.4492 18.4811 82.4492 19.8809V27H79.4707V20.623C79.4707 19.8418 79.3275 19.2526 79.041 18.8555C78.7611 18.4583 78.3184 18.2598 77.7129 18.2598C76.8014 18.2598 76.1797 18.569 75.8477 19.1875C75.5156 19.806 75.3496 20.6979 75.3496 21.8633V27H72.3711V16.082H74.6465L75.0469 17.4785H75.2129C75.4473 17.1009 75.737 16.7949 76.082 16.5605C76.4336 16.3262 76.821 16.1536 77.2441 16.043C77.6738 15.9323 78.1165 15.877 78.5723 15.877ZM90.1152 24.8223C90.4408 24.8223 90.7565 24.7897 91.0625 24.7246C91.375 24.6595 91.6842 24.5781 91.9902 24.4805V26.6973C91.6712 26.8405 91.2741 26.9577 90.7988 27.0488C90.3301 27.1465 89.8158 27.1953 89.2559 27.1953C88.6048 27.1953 88.0189 27.0911 87.498 26.8828C86.9837 26.668 86.5768 26.3001 86.2773 25.7793C85.9844 25.252 85.8379 24.5195 85.8379 23.582V18.3184H84.4121V17.0586L86.0527 16.0625L86.9121 13.7578H88.8164V16.082H91.873V18.3184H88.8164V23.582C88.8164 23.9987 88.9336 24.3112 89.168 24.5195C89.4089 24.7214 89.7246 24.8223 90.1152 24.8223ZM97.1855 16.082V27H94.207V16.082H97.1855ZM95.7012 11.8047C96.1439 11.8047 96.5247 11.9089 96.8438 12.1172C97.1628 12.319 97.3223 12.6999 97.3223 13.2598C97.3223 13.8132 97.1628 14.1973 96.8438 14.4121C96.5247 14.6204 96.1439 14.7246 95.7012 14.7246C95.252 14.7246 94.8678 14.6204 94.5488 14.4121C94.2363 14.1973 94.0801 13.8132 94.0801 13.2598C94.0801 12.6999 94.2363 12.319 94.5488 12.1172C94.8678 11.9089 95.252 11.8047 95.7012 11.8047ZM99.3535 22.8594V20.418H104.598V22.8594H99.3535ZM114.383 23.7578C114.383 24.5 114.207 25.1283 113.855 25.6426C113.51 26.1504 112.993 26.5378 112.303 26.8047C111.613 27.0651 110.753 27.1953 109.725 27.1953C108.963 27.1953 108.309 27.1465 107.762 27.0488C107.221 26.9512 106.674 26.7884 106.121 26.5605V24.0996C106.714 24.3665 107.348 24.5879 108.025 24.7637C108.709 24.9329 109.308 25.0176 109.822 25.0176C110.402 25.0176 110.815 24.9329 111.062 24.7637C111.316 24.5879 111.443 24.36 111.443 24.0801C111.443 23.8978 111.391 23.735 111.287 23.5918C111.189 23.4421 110.975 23.276 110.643 23.0938C110.311 22.9049 109.79 22.6608 109.08 22.3613C108.396 22.0749 107.833 21.7852 107.391 21.4922C106.954 21.1992 106.629 20.8542 106.414 20.457C106.206 20.0534 106.102 19.5423 106.102 18.9238C106.102 17.9147 106.492 17.1562 107.273 16.6484C108.061 16.1341 109.113 15.877 110.428 15.877C111.105 15.877 111.749 15.9453 112.361 16.082C112.98 16.2188 113.615 16.4368 114.266 16.7363L113.367 18.8848C112.827 18.6504 112.316 18.4583 111.834 18.3086C111.359 18.1589 110.874 18.084 110.379 18.084C109.943 18.084 109.614 18.1426 109.393 18.2598C109.171 18.377 109.061 18.556 109.061 18.7969C109.061 18.9727 109.116 19.1289 109.227 19.2656C109.344 19.4023 109.565 19.5553 109.891 19.7246C110.223 19.8874 110.708 20.099 111.346 20.3594C111.964 20.6133 112.501 20.8802 112.957 21.1602C113.413 21.4336 113.764 21.7754 114.012 22.1855C114.259 22.5892 114.383 23.1133 114.383 23.7578ZM119.686 27H116.707V11.8047H119.686V27ZM125.799 16.082V27H122.82V16.082H125.799ZM124.314 11.8047C124.757 11.8047 125.138 11.9089 125.457 12.1172C125.776 12.319 125.936 12.6999 125.936 13.2598C125.936 13.8132 125.776 14.1973 125.457 14.4121C125.138 14.6204 124.757 14.7246 124.314 14.7246C123.865 14.7246 123.481 14.6204 123.162 14.4121C122.85 14.1973 122.693 13.8132 122.693 13.2598C122.693 12.6999 122.85 12.319 123.162 12.1172C123.481 11.9089 123.865 11.8047 124.314 11.8047ZM135.008 15.877C136.238 15.877 137.231 16.3555 137.986 17.3125C138.748 18.2695 139.129 19.6725 139.129 21.5215C139.129 22.7585 138.95 23.8001 138.592 24.6465C138.234 25.4863 137.739 26.1211 137.107 26.5508C136.476 26.9805 135.75 27.1953 134.93 27.1953C134.402 27.1953 133.95 27.1302 133.572 27C133.195 26.8633 132.872 26.6908 132.605 26.4824C132.339 26.2676 132.107 26.0397 131.912 25.7988H131.756C131.808 26.0592 131.847 26.3262 131.873 26.5996C131.899 26.873 131.912 27.14 131.912 27.4004V31.8047H128.934V16.082H131.355L131.775 17.498H131.912C132.107 17.2051 132.345 16.9349 132.625 16.6875C132.905 16.4401 133.24 16.2448 133.631 16.1016C134.028 15.9518 134.487 15.877 135.008 15.877ZM134.051 18.2598C133.53 18.2598 133.117 18.3672 132.811 18.582C132.505 18.7969 132.28 19.1191 132.137 19.5488C132 19.9785 131.925 20.5221 131.912 21.1797V21.502C131.912 22.2051 131.977 22.8008 132.107 23.2891C132.244 23.7773 132.469 24.1484 132.781 24.4023C133.1 24.6562 133.536 24.7832 134.09 24.7832C134.546 24.7832 134.92 24.6562 135.213 24.4023C135.506 24.1484 135.724 23.7773 135.867 23.2891C136.017 22.7943 136.092 22.1921 136.092 21.4824C136.092 20.4147 135.926 19.6107 135.594 19.0703C135.262 18.5299 134.747 18.2598 134.051 18.2598ZM151.58 12.7227C153.423 12.7227 154.767 13.1198 155.613 13.9141C156.46 14.7018 156.883 15.7891 156.883 17.1758C156.883 17.8008 156.788 18.3997 156.6 18.9727C156.411 19.5391 156.102 20.0436 155.672 20.4863C155.249 20.929 154.682 21.2806 153.973 21.541C153.263 21.7949 152.387 21.9219 151.346 21.9219H150.047V27H147.02V12.7227H151.58ZM151.424 15.2031H150.047V19.4414H151.043C151.609 19.4414 152.101 19.3665 152.518 19.2168C152.934 19.0671 153.257 18.8327 153.484 18.5137C153.712 18.1947 153.826 17.7845 153.826 17.2832C153.826 16.5801 153.631 16.0592 153.24 15.7207C152.85 15.3757 152.244 15.2031 151.424 15.2031ZM165.438 15.877C165.587 15.877 165.76 15.8867 165.955 15.9062C166.157 15.9193 166.32 15.9388 166.443 15.9648L166.219 18.7578C166.121 18.7253 165.981 18.7025 165.799 18.6895C165.623 18.6699 165.47 18.6602 165.34 18.6602C164.956 18.6602 164.581 18.709 164.217 18.8066C163.859 18.9043 163.536 19.0638 163.25 19.2852C162.964 19.5 162.736 19.7865 162.566 20.1445C162.404 20.4961 162.322 20.929 162.322 21.4434V27H159.344V16.082H161.6L162.039 17.918H162.186C162.4 17.5469 162.667 17.2083 162.986 16.9023C163.312 16.5898 163.68 16.3424 164.09 16.1602C164.507 15.9714 164.956 15.877 165.438 15.877ZM178.348 21.5215C178.348 22.4329 178.224 23.2402 177.977 23.9434C177.736 24.6465 177.381 25.2422 176.912 25.7305C176.45 26.2122 175.89 26.5768 175.232 26.8242C174.581 27.0716 173.846 27.1953 173.025 27.1953C172.257 27.1953 171.551 27.0716 170.906 26.8242C170.268 26.5768 169.712 26.2122 169.236 25.7305C168.768 25.2422 168.403 24.6465 168.143 23.9434C167.889 23.2402 167.762 22.4329 167.762 21.5215C167.762 20.3105 167.977 19.2852 168.406 18.4453C168.836 17.6055 169.448 16.9674 170.242 16.5312C171.036 16.0951 171.984 15.877 173.084 15.877C174.106 15.877 175.011 16.0951 175.799 16.5312C176.593 16.9674 177.215 17.6055 177.664 18.4453C178.12 19.2852 178.348 20.3105 178.348 21.5215ZM170.799 21.5215C170.799 22.2376 170.877 22.8398 171.033 23.3281C171.189 23.8164 171.434 24.1842 171.766 24.4316C172.098 24.679 172.531 24.8027 173.064 24.8027C173.592 24.8027 174.018 24.679 174.344 24.4316C174.676 24.1842 174.917 23.8164 175.066 23.3281C175.223 22.8398 175.301 22.2376 175.301 21.5215C175.301 20.7988 175.223 20.1999 175.066 19.7246C174.917 19.2428 174.676 18.8815 174.344 18.6406C174.012 18.3997 173.579 18.2793 173.045 18.2793C172.257 18.2793 171.684 18.5495 171.326 19.0898C170.975 19.6302 170.799 20.4408 170.799 21.5215ZM186.844 18.3184H184.266V27H181.287V18.3184H179.646V16.8828L181.287 16.082V15.2812C181.287 14.3503 181.443 13.6276 181.756 13.1133C182.075 12.5924 182.521 12.2279 183.094 12.0195C183.673 11.8047 184.357 11.6973 185.145 11.6973C185.724 11.6973 186.251 11.7461 186.727 11.8438C187.202 11.9349 187.589 12.0391 187.889 12.1562L187.127 14.3438C186.899 14.2721 186.652 14.207 186.385 14.1484C186.118 14.0898 185.812 14.0605 185.467 14.0605C185.05 14.0605 184.744 14.1875 184.549 14.4414C184.36 14.6888 184.266 15.0078 184.266 15.3984V16.082H186.844V18.3184ZM191.531 16.082V27H188.553V16.082H191.531ZM190.047 11.8047C190.49 11.8047 190.87 11.9089 191.189 12.1172C191.508 12.319 191.668 12.6999 191.668 13.2598C191.668 13.8132 191.508 14.1973 191.189 14.4121C190.87 14.6204 190.49 14.7246 190.047 14.7246C189.598 14.7246 189.214 14.6204 188.895 14.4121C188.582 14.1973 188.426 13.8132 188.426 13.2598C188.426 12.6999 188.582 12.319 188.895 12.1172C189.214 11.9089 189.598 11.8047 190.047 11.8047ZM197.635 27H194.656V11.8047H197.635V27ZM205.271 15.877C206.281 15.877 207.15 16.0723 207.879 16.4629C208.608 16.847 209.171 17.4069 209.568 18.1426C209.965 18.8783 210.164 19.7767 210.164 20.8379V22.2832H203.123C203.156 23.123 203.406 23.7839 203.875 24.2656C204.35 24.7409 205.008 24.9785 205.848 24.9785C206.544 24.9785 207.182 24.9069 207.762 24.7637C208.341 24.6204 208.937 24.4056 209.549 24.1191V26.4238C209.008 26.6908 208.442 26.8861 207.85 27.0098C207.264 27.1335 206.551 27.1953 205.711 27.1953C204.617 27.1953 203.647 26.9935 202.801 26.5898C201.961 26.1862 201.3 25.571 200.818 24.7441C200.343 23.9173 200.105 22.8757 200.105 21.6191C200.105 20.3431 200.32 19.2819 200.75 18.4355C201.186 17.5827 201.792 16.9447 202.566 16.5215C203.341 16.0918 204.243 15.877 205.271 15.877ZM205.291 17.9961C204.712 17.9961 204.23 18.1816 203.846 18.5527C203.468 18.9238 203.25 19.5065 203.191 20.3008H207.371C207.365 19.8581 207.283 19.4642 207.127 19.1191C206.977 18.7741 206.749 18.5007 206.443 18.2988C206.144 18.097 205.76 17.9961 205.291 17.9961ZM220.203 23.7578C220.203 24.5 220.027 25.1283 219.676 25.6426C219.331 26.1504 218.813 26.5378 218.123 26.8047C217.433 27.0651 216.574 27.1953 215.545 27.1953C214.783 27.1953 214.129 27.1465 213.582 27.0488C213.042 26.9512 212.495 26.7884 211.941 26.5605V24.0996C212.534 24.3665 213.169 24.5879 213.846 24.7637C214.529 24.9329 215.128 25.0176 215.643 25.0176C216.222 25.0176 216.635 24.9329 216.883 24.7637C217.137 24.5879 217.264 24.36 217.264 24.0801C217.264 23.8978 217.212 23.735 217.107 23.5918C217.01 23.4421 216.795 23.276 216.463 23.0938C216.131 22.9049 215.61 22.6608 214.9 22.3613C214.217 22.0749 213.654 21.7852 213.211 21.4922C212.775 21.1992 212.449 20.8542 212.234 20.457C212.026 20.0534 211.922 19.5423 211.922 18.9238C211.922 17.9147 212.312 17.1562 213.094 16.6484C213.882 16.1341 214.933 15.877 216.248 15.877C216.925 15.877 217.57 15.9453 218.182 16.082C218.8 16.2188 219.435 16.4368 220.086 16.7363L219.188 18.8848C218.647 18.6504 218.136 18.4583 217.654 18.3086C217.179 18.1589 216.694 18.084 216.199 18.084C215.763 18.084 215.434 18.1426 215.213 18.2598C214.992 18.377 214.881 18.556 214.881 18.7969C214.881 18.9727 214.936 19.1289 215.047 19.2656C215.164 19.4023 215.385 19.5553 215.711 19.7246C216.043 19.8874 216.528 20.099 217.166 20.3594C217.785 20.6133 218.322 20.8802 218.777 21.1602C219.233 21.4336 219.585 21.7754 219.832 22.1855C220.079 22.5892 220.203 23.1133 220.203 23.7578ZM231.639 24.2363V15.3984H234.305C235.392 15.3984 236.189 15.6296 236.697 16.0918C237.205 16.554 237.459 17.2181 237.459 18.084C237.459 18.7155 237.299 19.2135 236.98 19.5781C236.661 19.9362 236.3 20.1966 235.896 20.3594L238.221 24.2363H236.404L234.5 20.877H233.26V24.2363H231.639ZM233.26 19.5391H234.256C234.777 19.5391 235.167 19.4089 235.428 19.1484C235.688 18.8815 235.818 18.5397 235.818 18.123C235.818 17.6478 235.698 17.306 235.457 17.0977C235.223 16.8828 234.816 16.7754 234.236 16.7754H233.26V19.5391ZM234.48 27.1953C233.419 27.1953 232.439 27.0163 231.541 26.6582C230.649 26.2936 229.871 25.7826 229.207 25.125C228.549 24.4674 228.038 23.6927 227.674 22.8008C227.316 21.9023 227.137 20.9225 227.137 19.8613C227.137 18.8457 227.319 17.8952 227.684 17.0098C228.055 16.1178 228.572 15.3366 229.236 14.666C229.907 13.9954 230.688 13.4714 231.58 13.0938C232.472 12.7096 233.439 12.5176 234.48 12.5176C235.496 12.5176 236.447 12.6999 237.332 13.0645C238.224 13.4225 239.005 13.9336 239.676 14.5977C240.346 15.2552 240.87 16.0299 241.248 16.9219C241.632 17.8138 241.824 18.7936 241.824 19.8613C241.824 20.9225 241.642 21.9023 241.277 22.8008C240.919 23.6927 240.408 24.4674 239.744 25.125C239.087 25.7826 238.312 26.2936 237.42 26.6582C236.528 27.0163 235.548 27.1953 234.48 27.1953ZM234.48 25.916C235.301 25.916 236.069 25.7695 236.785 25.4766C237.501 25.1771 238.133 24.7572 238.68 24.2168C239.227 23.6764 239.653 23.0384 239.959 22.3027C240.265 21.5605 240.418 20.7467 240.418 19.8613C240.418 19.028 240.268 18.2435 239.969 17.5078C239.669 16.7721 239.249 16.1243 238.709 15.5645C238.175 15.0046 237.547 14.5684 236.824 14.2559C236.108 13.9368 235.327 13.7773 234.48 13.7773C233.628 13.7773 232.837 13.9271 232.107 14.2266C231.385 14.526 230.753 14.9492 230.213 15.4961C229.673 16.0365 229.253 16.6777 228.953 17.4199C228.654 18.1621 228.504 18.9759 228.504 19.8613C228.504 20.7467 228.65 21.5605 228.943 22.3027C229.236 23.0384 229.65 23.6764 230.184 24.2168C230.717 24.7572 231.349 25.1771 232.078 25.4766C232.807 25.7695 233.608 25.916 234.48 25.916Z" fill="#1B1B18"/>
</svg>
