<?xml version="1.0" standalone="no"?>
<!DOCTYPE svg PUBLIC "-//W3C//DTD SVG 20010904//EN"
 "http://www.w3.org/TR/2001/REC-SVG-20010904/DTD/svg10.dtd">
<svg version="1.0" xmlns="http://www.w3.org/2000/svg"
 width="700.000000pt" height="700.000000pt" viewBox="0 0 700.000000 700.000000"
 preserveAspectRatio="xMidYMid meet">
<metadata>
Created by potrace 1.14, written by Peter Selinger 2001-2017
</metadata>
<g transform="translate(0.000000,700.000000) scale(0.100000,-0.100000)"
fill="#000000" stroke="none">
<path d="M203 6979 c-70 -27 -145 -96 -174 -161 l-24 -53 -2 -3255 -3 -3255
24 -58 c31 -75 98 -142 173 -173 l58 -24 3255 3 3255 2 51 23 c64 29 126 92
156 157 l23 50 2 3255 c2 3222 2 3256 -18 3306 -28 74 -92 142 -164 175 l-60
28 -3250 0 c-3225 0 -3250 0 -3302 -20z"/>
</g>
</svg>
