<?xml version="1.0" standalone="no"?>
<!DOCTYPE svg PUBLIC "-//W3C//DTD SVG 20010904//EN"
 "http://www.w3.org/TR/2001/REC-SVG-20010904/DTD/svg10.dtd">
<svg version="1.0" xmlns="http://www.w3.org/2000/svg"
 width="700.000000pt" height="700.000000pt" viewBox="0 0 700.000000 700.000000"
 preserveAspectRatio="xMidYMid meet">
<metadata>
Created by potrace 1.14, written by Peter Selinger 2001-2017
</metadata>
<g transform="translate(0.000000,700.000000) scale(0.100000,-0.100000)"
fill="#000000" stroke="none">
<path d="M704 6989 c-159 -27 -317 -105 -435 -217 -119 -112 -187 -220 -236
-379 l-28 -88 0 -2805 0 -2805 28 -88 c49 -159 117 -267 236 -379 123 -117
279 -192 449 -218 45 -7 975 -10 2827 -8 l2760 3 88 28 c159 49 267 117 379
236 117 123 192 279 218 449 7 45 10 975 8 2827 l-3 2760 -28 88 c-48 155
-116 266 -228 373 -109 103 -198 155 -346 201 l-88 28 -2775 1 c-1526 1 -2798
-2 -2826 -7z m3441 -1511 c22 -5 58 -20 80 -33 22 -13 358 -342 747 -732 l708
-708 -1191 -1212 c-1305 -1329 -1230 -1260 -1374 -1283 -84 -14 -1750 -13
-1835 1 -126 20 -233 101 -289 219 -26 55 -26 57 -26 295 l0 240 34 70 c43 87
117 161 197 197 267 121 380 182 499 272 l60 45 167 -166 c166 -164 167 -166
204 -160 69 11 101 62 83 130 -9 34 -38 69 -150 182 l-138 140 102 104 102
103 147 -151 c143 -147 148 -151 188 -151 77 0 119 68 90 147 -6 15 -74 91
-151 169 l-141 141 47 71 c25 40 58 97 73 127 l28 55 179 -180 c168 -169 181
-180 216 -180 27 0 45 8 68 29 26 25 31 36 31 77 l0 48 -204 205 -204 205 163
325 163 326 499 496 c378 377 509 501 545 518 84 40 177 46 283 19z m1792
-1730 c45 -46 87 -96 92 -111 17 -44 13 -114 -8 -155 -24 -46 -924 -944 -968
-966 -39 -20 -113 -21 -156 -2 -18 8 -68 50 -112 95 l-80 81 570 570 c314 314
572 570 575 570 3 0 42 -37 87 -82z"/>
<path d="M3573 4658 l-451 -453 -92 -198 -92 -197 100 -109 c55 -59 111 -128
125 -152 80 -137 82 -329 5 -456 -20 -34 -175 -195 -423 -442 -354 -353 -396
-391 -460 -422 -67 -33 -74 -34 -185 -34 -110 0 -119 2 -180 32 -36 18 -93 57
-127 88 l-61 55 -76 -41 c-42 -22 -126 -63 -188 -90 l-113 -49 -3 -150 -3
-150 859 0 858 0 125 127 c240 246 1446 1471 1698 1726 l256 257 -555 555
c-305 305 -557 555 -560 555 -3 0 -208 -204 -457 -452z"/>
</g>
</svg>
